<svg xmlns="http://www.w3.org/2000/svg" aria-hidden="true" style="position:absolute;width:0;height:0;overflow:hidden">
    <defs>
        <!-- ICONS-COLOR -->
        <!-- Icon-logo -->
        <symbol id="icon-logo-all" viewBox="0 0 31 32">
            <path fill="#ccc" d="M21.067 1.333H0l8.933 8.933H30l-8.933-8.933zm-12.134 8.8V31.2L0 22.4V1.333l8.933 8.8z"
                style="fill:var(--color1, #ccc)" />
            <path d="M8.933 31.333H30L21.067 22.4H0l8.933 8.933zM21.067 22.4V1.333L30 10.266v21.067L21.067 22.4z"
                style="fill:var(--color2, #000)" />
        </symbol>
        <symbol id="icon-logo-3" viewBox="0 0 31 32">
            <path fill="#ccc"
                d="M9.067 30.133h21.6L21.6 21.066H0l9.067 9.067zm12.533-8.8V0l9.067 8.933v21.333L21.6 21.333z"
                style="fill:var(--color1, #ccc)" />
            <path d="M21.6 0H0l9.067 9.067h21.6L21.6 0zM9.067 9.067V30.4L0 21.333V0l9.067 9.067z"
                style="fill:var(--color2, #000)" />
        </symbol>
        <symbol id="icon-logo-2" viewBox="0 0 31 32">
            <path fill="#ccc" d="M21.6 0H0l9.067 9.067h21.6L21.6 0zM9.067 8.933v21.333L0 21.333V0l9.067 8.933z"
                style="fill:var(--color1, #ccc)" />
            <path d="M9.067 30.4h21.6L21.6 21.333H0L9.067 30.4zM21.6 21.333V0l9.067 9.067V30.4L21.6 21.333z"
                style="fill:var(--color2, #000)" />
        </symbol>
        <symbol id="icon-logo-cl" viewBox="0 0 31 32">
            <path fill="#ccc" d="M21.067 1.333H0l8.933 8.933H30l-8.933-8.933zm-12.134 8.8V31.2L0 22.4V1.333l8.933 8.8z"
                style="fill:var(--color1, #ccc)" />
            <path d="M8.933 31.333H30L21.067 22.4H0l8.933 8.933zM21.067 22.4V1.333L30 10.266v21.067L21.067 22.4z"
                style="fill:var(--color2, #000)" />
        </symbol>
        <symbol id="icon-logo-1-cl" viewBox="0 0 31 32">
            <path fill="#ccc"
                d="M21.129 1.284H0l8.896 8.896h21.128l-8.896-8.896zM8.896 10.18v21.128L0 22.412V1.284l8.896 8.896z"
                style="fill:var(--color1, #ccc)" />
        </symbol>
        <symbol id="icon-logo-2-cl" viewBox="0 0 31 32">
            <path
                d="M8.896 31.309h21.128l-8.896-8.896H0l8.896 8.896zm12.233-8.897V1.284l8.896 8.896v21.129l-8.896-8.896z" />
        </symbol>
        <!-- смайлы для анимированной кнопки -->
        <symbol id="icon-happy" viewBox="0 0 32 32">
            <path
                d="M16 32c8.837 0 16-7.163 16-16S24.837 0 16 0 0 7.163 0 16s7.163 16 16 16zm0-29c7.18 0 13 5.82 13 13s-5.82 13-13 13S3 23.18 3 16 8.82 3 16 3zm0 15.711c3.623 0 7.07-.963 10-2.654-.455 5.576-4.785 9.942-10 9.942s-9.544-4.371-10-9.947c2.93 1.691 6.377 2.658 10 2.658zM8 11c0-1.657.895-3 2-3s2 1.343 2 3-.895 3-2 3-2-1.343-2-3zm12 0c0-1.657.895-3 2-3s2 1.343 2 3-.895 3-2 3-2-1.343-2-3z" />
        </symbol>
        <symbol id="icon-happy2" viewBox="0 0 32 32">
            <path
                d="M16 0C7.163 0 0 7.163 0 16s7.163 16 16 16 16-7.163 16-16S24.837 0 16 0zm6 8c1.105 0 2 1.343 2 3s-.895 3-2 3-2-1.343-2-3 .895-3 2-3zM10 8c1.105 0 2 1.343 2 3s-.895 3-2 3-2-1.343-2-3 .895-3 2-3zm6 20c-5.215 0-9.544-4.371-10-9.947 2.93 1.691 6.377 2.658 10 2.658s7.07-.963 10-2.654c-.455 5.576-4.785 9.942-10 9.942z" />
        </symbol>
        <!-- Icon-socials -->
        <symbol id="icon-facebook-cl" viewBox="0 0 32 32">
            <path fill="#f4f4fd"
                d="M21.329 5.313h2.921V.225C23.746.156 22.013 0 19.994 0c-4.212 0-7.097 2.649-7.097 7.519V12H8.249v5.688h4.648V32h5.699V17.689h4.46l.708-5.688h-5.169V8.082c.001-1.644.444-2.769 2.735-2.769z"
                style="fill:var(--color3, #f4f4fd)" />
        </symbol>
        <symbol id="icon-instagram-cl" viewBox="0 0 32 32">
            <path fill="#f4f4fd"
                d="M31.969 9.408c-.075-1.7-.35-2.869-.744-3.882-.406-1.075-1.031-2.038-1.85-2.838-.8-.813-1.769-1.444-2.832-1.844C25.524.45 24.361.175 22.661.1 20.948.019 20.404 0 16.06 0s-4.888.019-6.595.094c-1.7.075-2.869.35-3.882.744-1.075.406-2.038 1.031-2.838 1.85-.813.8-1.444 1.769-1.844 2.832C.507 6.539.232 7.702.157 9.402c-.081 1.713-.1 2.257-.1 6.601s.019 4.888.094 6.595c.075 1.7.35 2.869.744 3.882.406 1.075 1.038 2.038 1.85 2.838.8.813 1.769 1.444 2.832 1.844 1.019.394 2.182.669 3.882.744 1.706.075 2.25.094 6.595.094s4.888-.018 6.595-.094c1.7-.075 2.869-.35 3.882-.744 2.151-.831 3.851-2.532 4.682-4.682.394-1.019.669-2.182.744-3.882.075-1.707.094-2.251.094-6.595s-.006-4.888-.081-6.595zm-2.882 13.065c-.069 1.563-.331 2.407-.55 2.969-.538 1.394-1.644 2.501-3.038 3.038-.563.219-1.413.481-2.969.55-1.688.075-2.194.094-6.464.094s-4.782-.018-6.464-.094c-1.563-.069-2.407-.331-2.969-.55-.694-.256-1.325-.663-1.838-1.194-.531-.519-.938-1.144-1.194-1.838-.219-.563-.481-1.413-.55-2.969-.075-1.688-.094-2.194-.094-6.464s.019-4.782.094-6.464c.069-1.563.331-2.407.55-2.969.256-.694.663-1.325 1.2-1.838.519-.531 1.144-.938 1.838-1.194.563-.219 1.413-.481 2.969-.55 1.688-.075 2.194-.094 6.464-.094 4.276 0 4.782.019 6.464.094 1.563.069 2.407.331 2.969.55.694.256 1.325.662 1.838 1.194.531.519.938 1.144 1.194 1.838.219.563.481 1.413.55 2.969.075 1.688.094 2.194.094 6.464s-.019 4.77-.094 6.457z"
                style="fill:var(--color3, #f4f4fd)" />
            <path fill="#f4f4fd"
                d="M16.059 7.782c-4.538 0-8.22 3.682-8.22 8.22s3.682 8.22 8.22 8.22 8.22-3.682 8.22-8.22-3.682-8.22-8.22-8.22zm0 13.553c-2.944 0-5.332-2.388-5.332-5.332s2.388-5.332 5.332-5.332 5.332 2.388 5.332 5.332-2.388 5.332-5.332 5.332zM26.524 7.457c0 1.06-.859 1.919-1.919 1.919s-1.919-.859-1.919-1.919.859-1.919 1.919-1.919 1.919.859 1.919 1.919z"
                style="fill:var(--color3, #f4f4fd)" />
        </symbol>
        <symbol id="icon-linkedin-cl" viewBox="0 0 32 32">
            <path fill="#f4f4fd"
                d="M31.992 32v-.001H32V20.263c0-5.741-1.236-10.164-7.948-10.164-3.227 0-5.392 1.771-6.276 3.449h-.093v-2.913h-6.364v21.364h6.627V21.42c0-2.785.528-5.479 3.977-5.479 3.399 0 3.449 3.179 3.449 5.657v10.401h6.62zM.528 10.636h6.635V32H.528V10.636zM3.843 0C1.722 0 0 1.721 0 3.843s1.721 3.879 3.843 3.879c2.121 0 3.843-1.757 3.843-3.879C7.685 1.722 5.963 0 3.843 0z"
                style="fill:var(--color3, #f4f4fd)" />
        </symbol>
        <symbol id="icon-twitter-cl" viewBox="0 0 32 32">
            <path fill="#f4f4fd"
                d="M32 6.078c-1.19.522-2.458.868-3.78 1.036 1.36-.812 2.398-2.088 2.886-3.626-1.268.756-2.668 1.29-4.16 1.588C25.742 3.794 24.026 3 22.154 3c-3.632 0-6.556 2.948-6.556 6.562 0 .52.044 1.02.152 1.496-5.454-.266-10.28-2.88-13.522-6.862-.566.982-.898 2.106-.898 3.316 0 2.272 1.17 4.286 2.914 5.452-1.054-.02-2.088-.326-2.964-.808v.072c0 3.188 2.274 5.836 5.256 6.446-.534.146-1.116.216-1.72.216-.42 0-.844-.024-1.242-.112.85 2.598 3.262 4.508 6.13 4.57-2.232 1.746-5.066 2.798-8.134 2.798-.538 0-1.054-.024-1.57-.09C2.906 27.93 6.35 29 10.064 29c12.072 0 18.672-10 18.672-18.668 0-.29-.01-.57-.024-.848C30.014 8.56 31.108 7.406 32 6.078z"
                style="fill:var(--color3, #f4f4fd)" />
        </symbol>
        <!-- Icon-moile-menu-modal-window -->
        <symbol id="icon-menu-cl" viewBox="0 0 32 32">
            <path fill="#fff" d="M0 8.889V5.333h32v3.556H0zm0 8.889h32v-3.556H0v3.556zm0 8.889h32v-3.556H0v3.556z"
                style="fill:var(--color4, #fff)" />
        </symbol>
        <symbol id="icon-close-cl" viewBox="0 0 32 32">
            <path
                d="M32 3.223 28.777 0 16 12.777 3.223 0 0 3.223 12.777 16 0 28.777 3.223 32 16 19.223 28.777 32 32 28.777 19.223 16 32 3.223z" />
        </symbol>
        <!-- Icon-video-play -->
        <symbol id="icon-Group" viewBox="0 0 32 32">
            <path fill="#18a0fb" d="M32 16c0 8.837-7.163 16-16 16S0 24.837 0 16 7.163 0 16 0s16 7.163 16 16z"
                style="fill:var(--color1, #18a0fb)" />
            <path fill="#fff"
                d="M21.939 15.249c.485.28.485.98 0 1.26l-8.545 4.934c-.485.28-1.091-.07-1.091-.63v-9.867c0-.56.606-.91 1.091-.63l8.545 4.934z"
                style="fill:var(--color2, #fff)" />
        </symbol>
        <!-- ICONS-NO-COLOR -->
        <!-- Icon-video-play-->
        <symbol id="icon-polygon" viewBox="0 0 29 32">
            <path
                d="M27.574 14.231c1.362.786 1.362 2.752 0 3.538l-24 13.856C2.212 32.411.51 31.428.51 29.856V2.143C.51.571 2.212-.412 3.574.374l24 13.856z" />
        </symbol>
        <!-- Icon-logo -->
        <symbol id="icon-logo" viewBox="0 0 31 32">
            <path d="M21.067 1.333H0l8.933 8.933H30l-8.933-8.933zm-12.134 8.8V31.2L0 22.4V1.333l8.933 8.8z" />
            <path d="M8.933 31.333H30L21.067 22.4H0l8.933 8.933zM21.067 22.4V1.333L30 10.266v21.067L21.067 22.4z" />
        </symbol>
        <symbol id="icon-logo-1" viewBox="0 0 31 32">
            <path d="M21.129 1.284H0l8.896 8.896h21.128l-8.896-8.896zM8.896 10.18v21.128L0 22.412V1.284l8.896 8.896z" />
        </symbol>
        <symbol id="icon-logo-2" viewBox="0 0 31 32">
            <path
                d="M8.896 31.309h21.128l-8.896-8.896H0l8.896 8.896zm12.233-8.897V1.284l8.896 8.896v21.129l-8.896-8.896z" />
        </symbol>
        <!-- Icon-socials -->
        <symbol id="icon-facebook" viewBox="0 0 32 32">
            <path
                d="M21.329 5.313h2.921V.225C23.746.156 22.013 0 19.994 0c-4.212 0-7.097 2.649-7.097 7.519V12H8.249v5.688h4.648V32h5.699V17.689h4.46l.708-5.688h-5.169V8.082c.001-1.644.444-2.769 2.735-2.769z" />
        </symbol>
        <symbol id="icon-instagram" viewBox="0 0 32 32">
            <path
                d="M31.969 9.408c-.075-1.7-.35-2.869-.744-3.882-.406-1.075-1.031-2.038-1.85-2.838-.8-.813-1.769-1.444-2.832-1.844C25.524.45 24.361.175 22.661.1 20.948.019 20.404 0 16.06 0s-4.888.019-6.595.094c-1.7.075-2.869.35-3.882.744-1.075.406-2.038 1.031-2.838 1.85-.813.8-1.444 1.769-1.844 2.832C.507 6.539.232 7.702.157 9.402c-.081 1.713-.1 2.257-.1 6.601s.019 4.888.094 6.595c.075 1.7.35 2.869.744 3.882.406 1.075 1.038 2.038 1.85 2.838.8.813 1.769 1.444 2.832 1.844 1.019.394 2.182.669 3.882.744 1.706.075 2.25.094 6.595.094s4.888-.018 6.595-.094c1.7-.075 2.869-.35 3.882-.744 2.151-.831 3.851-2.532 4.682-4.682.394-1.019.669-2.182.744-3.882.075-1.707.094-2.251.094-6.595s-.006-4.888-.081-6.595zm-2.882 13.065c-.069 1.563-.331 2.407-.55 2.969-.538 1.394-1.644 2.501-3.038 3.038-.563.219-1.413.481-2.969.55-1.688.075-2.194.094-6.464.094s-4.782-.018-6.464-.094c-1.563-.069-2.407-.331-2.969-.55-.694-.256-1.325-.663-1.838-1.194-.531-.519-.938-1.144-1.194-1.838-.219-.563-.481-1.413-.55-2.969-.075-1.688-.094-2.194-.094-6.464s.019-4.782.094-6.464c.069-1.563.331-2.407.55-2.969.256-.694.663-1.325 1.2-1.838.519-.531 1.144-.938 1.838-1.194.563-.219 1.413-.481 2.969-.55 1.688-.075 2.194-.094 6.464-.094 4.276 0 4.782.019 6.464.094 1.563.069 2.407.331 2.969.55.694.256 1.325.662 1.838 1.194.531.519.938 1.144 1.194 1.838.219.563.481 1.413.55 2.969.075 1.688.094 2.194.094 6.464s-.019 4.77-.094 6.457z" />
            <path
                d="M16.059 7.782c-4.538 0-8.22 3.682-8.22 8.22s3.682 8.22 8.22 8.22 8.22-3.682 8.22-8.22-3.682-8.22-8.22-8.22zm0 13.553c-2.944 0-5.332-2.388-5.332-5.332s2.388-5.332 5.332-5.332 5.332 2.388 5.332 5.332-2.388 5.332-5.332 5.332zM26.524 7.457c0 1.06-.859 1.919-1.919 1.919s-1.919-.859-1.919-1.919.859-1.919 1.919-1.919 1.919.859 1.919 1.919z" />
        </symbol>
        <symbol id="icon-linkedin" viewBox="0 0 32 32">
            <path
                d="M31.992 32v-.001H32V20.263c0-5.741-1.236-10.164-7.948-10.164-3.227 0-5.392 1.771-6.276 3.449h-.093v-2.913h-6.364v21.364h6.627V21.42c0-2.785.528-5.479 3.977-5.479 3.399 0 3.449 3.179 3.449 5.657v10.401h6.62zM.528 10.636h6.635V32H.528V10.636zM3.843 0C1.722 0 0 1.721 0 3.843s1.721 3.879 3.843 3.879c2.121 0 3.843-1.757 3.843-3.879C7.685 1.722 5.963 0 3.843 0z" />
        </symbol>
        <symbol id="icon-twitter" viewBox="0 0 32 32">
            <path
                d="M32 6.078c-1.19.522-2.458.868-3.78 1.036 1.36-.812 2.398-2.088 2.886-3.626-1.268.756-2.668 1.29-4.16 1.588C25.742 3.794 24.026 3 22.154 3c-3.632 0-6.556 2.948-6.556 6.562 0 .52.044 1.02.152 1.496-5.454-.266-10.28-2.88-13.522-6.862-.566.982-.898 2.106-.898 3.316 0 2.272 1.17 4.286 2.914 5.452-1.054-.02-2.088-.326-2.964-.808v.072c0 3.188 2.274 5.836 5.256 6.446-.534.146-1.116.216-1.72.216-.42 0-.844-.024-1.242-.112.85 2.598 3.262 4.508 6.13 4.57-2.232 1.746-5.066 2.798-8.134 2.798-.538 0-1.054-.024-1.57-.09C2.906 27.93 6.35 29 10.064 29c12.072 0 18.672-10 18.672-18.668 0-.29-.01-.57-.024-.848C30.014 8.56 31.108 7.406 32 6.078z" />
        </symbol>
        <!-- Icon-moile-menu-modal-window -->
        <symbol id="icon-menu" viewBox="0 0 32 32">
            <path d="M0 8.889V5.333h32v3.556H0zm0 8.889h32v-3.556H0v3.556zm0 8.889h32v-3.556H0v3.556z" />
        </symbol>
        <symbol id="icon-close" viewBox="0 0 32 32">
            <path
                d="M32 3.223 28.777 0 16 12.777 3.223 0 0 3.223 12.777 16 0 28.777 3.223 32 16 19.223 28.777 32 32 28.777 19.223 16 32 3.223z" />
        </symbol>
        <!-- icon form -->
        <symbol id="icon-mail" viewBox="0 0 32 32">
            <path
                d="M29 4H3C1.35 4 0 5.35 0 7v20c0 1.65 1.35 3 3 3h26c1.65 0 3-1.35 3-3V7c0-1.65-1.35-3-3-3zM12.461 17.199 4 23.789V8.113l8.461 9.086zM5.512 8h20.976L16 15.875 5.512 8zm7.278 9.553L16 21l3.21-3.447L25.79 26H6.211l6.58-8.447zm6.749-.354L28 8.113v15.676l-8.461-6.59z" />
        </symbol>
        <symbol id="icon-user" viewBox="0 0 32 32">
            <path
                d="M18 22.082v-1.649c2.203-1.241 4-4.337 4-7.432 0-4.971 0-9-6-9s-6 4.029-6 9c0 3.096 1.797 6.191 4 7.432v1.649C7.216 22.637 2 25.97 2 30h28c0-4.03-5.216-7.364-12-7.918z" />
        </symbol>
    </defs>
</svg>